<svg data-v-423bf9ae="" xmlns="http://www.w3.org/2000/svg" viewBox="0 0 321 91" class="iconLeft"><!----><!----><!----><g data-v-423bf9ae="" id="4aab41a4-a28e-410a-a5fd-d7db1005ce1e" fill="#202A4F" transform="matrix(4.5558085441589355,0,0,4.5558085441589355,87.17367553710938,3.975943088531494)"><path d="M3.05 5.80L3.05 5.80Q4.01 5.80 4.55 6.03L4.55 6.03L4.55 6.03Q5.08 6.26 5.54 6.72L5.54 6.72L4.48 7.92L4.48 7.92Q4.01 7.37 3.32 7.37L3.32 7.37L3.32 7.37Q2.63 7.37 2.39 7.63L2.39 7.63L2.39 7.63Q2.16 7.88 2.39 8.09L2.39 8.09L2.39 8.09Q2.63 8.30 3.32 8.44L3.32 8.44L3.32 8.44Q4.33 8.53 4.98 9.02L4.98 9.02L4.98 9.02Q5.63 9.50 5.63 10.71L5.63 10.71L5.63 10.71Q5.63 11.68 4.87 12.21L4.87 12.21L4.87 12.21Q4.10 12.74 3.08 12.74L3.08 12.74L3.08 12.74Q2.11 12.74 1.47 12.47L1.47 12.47L1.47 12.47Q0.82 12.19 0.36 11.72L0.36 11.72L1.42 10.53L1.42 10.53Q1.88 11.08 2.86 11.17L2.86 11.17L2.86 11.17Q3.64 11.17 3.87 10.91L3.87 10.91L3.87 10.91Q4.10 10.66 3.94 10.40L3.94 10.40L3.94 10.40Q3.78 10.14 2.86 10.06L2.86 10.06L2.86 10.06Q2.02 9.96 1.33 9.54L1.33 9.54L1.33 9.54Q0.64 9.13 0.64 7.97L0.64 7.97L0.64 7.97Q0.64 6.91 1.43 6.35L1.43 6.35L1.43 6.35Q2.21 5.80 3.05 5.80L3.05 5.80ZM11.27 10.31L11.27 10.31L11.27 5.84L13.18 5.84L13.18 12.13L13.18 12.13Q13.18 13.56 12.29 14.53L12.29 14.53L12.29 14.53Q11.40 15.49 10.17 15.54L10.17 15.54L9.76 15.59L9.76 15.59Q8.33 15.54 7.16 14.45L7.16 14.45L8.05 13.43L8.05 13.43Q8.87 14.04 9.60 14.11L9.60 14.11L9.60 14.11Q10.49 14.11 10.88 13.67L10.88 13.67L10.88 13.67Q11.27 13.22 11.27 12.40L11.27 12.40L11.27 12.05L11.27 12.05Q10.54 12.67 9.59 12.67L9.59 12.67L9.59 12.67Q8.29 12.67 7.61 11.89L7.61 11.89L7.61 11.89Q6.92 11.10 6.92 10.08L6.92 10.08L6.92 5.84L8.84 5.84L8.84 9.60L8.84 9.60Q8.84 10.28 9.18 10.66L9.18 10.66L9.18 10.66Q9.52 11.03 10.21 11.05L10.21 11.05L10.21 11.05Q10.81 11.01 11.27 10.31ZM17.10 5.80L17.10 5.80Q18.07 5.80 18.60 6.03L18.60 6.03L18.60 6.03Q19.13 6.26 19.60 6.72L19.60 6.72L18.53 7.92L18.53 7.92Q18.07 7.37 17.37 7.37L17.37 7.37L17.37 7.37Q16.68 7.37 16.45 7.63L16.45 7.63L16.45 7.63Q16.21 7.88 16.45 8.09L16.45 8.09L16.45 8.09Q16.68 8.30 17.37 8.44L17.37 8.44L17.37 8.44Q18.39 8.53 19.04 9.02L19.04 9.02L19.04 9.02Q19.69 9.50 19.69 10.71L19.69 10.71L19.69 10.71Q19.69 11.68 18.92 12.21L18.92 12.21L18.92 12.21Q18.16 12.74 17.14 12.74L17.14 12.74L17.14 12.74Q16.17 12.74 15.52 12.47L15.52 12.47L15.52 12.47Q14.88 12.19 14.41 11.72L14.41 11.72L15.47 10.53L15.47 10.53Q15.93 11.08 16.91 11.17L16.91 11.17L16.91 11.17Q17.70 11.17 17.93 10.91L17.93 10.91L17.93 10.91Q18.16 10.66 18.00 10.40L18.00 10.40L18.00 10.40Q17.83 10.14 16.91 10.06L16.91 10.06L16.91 10.06Q16.08 9.96 15.38 9.54L15.38 9.54L15.38 9.54Q14.69 9.13 14.69 7.97L14.69 7.97L14.69 7.97Q14.69 6.91 15.48 6.35L15.48 6.35L15.48 6.35Q16.27 5.80 17.10 5.80L17.10 5.80ZM22.97 15.55L21.05 15.54L21.05 6.04L22.97 5.83L22.97 6.38L22.97 6.38Q23.73 5.83 24.47 5.83L24.47 5.83L24.47 5.83Q26.04 5.83 26.97 6.86L26.97 6.86L26.97 6.86Q27.89 7.88 27.89 9.25L27.89 9.25L27.89 9.25Q27.89 10.62 26.97 11.64L26.97 11.64L26.97 11.64Q26.04 12.67 24.47 12.67L24.47 12.67L24.47 12.67Q23.45 12.60 22.97 12.11L22.97 12.11L22.97 15.55ZM22.97 8.63L22.97 8.63L22.97 9.74L22.97 9.74Q23.11 10.89 24.40 11.09L24.40 11.09L24.40 11.09Q26.04 10.96 26.25 9.39L26.25 9.39L26.25 9.39Q26.18 7.47 24.40 7.40L24.40 7.40L24.40 7.40Q23.11 7.61 22.97 8.63ZM30.14 7.82L29.39 6.66L29.39 6.66Q30.69 5.84 32.40 5.84L32.40 5.84L32.40 5.84Q33.63 5.84 34.34 6.52L34.34 6.52L34.34 6.52Q35.06 7.21 35.06 8.57L35.06 8.57L35.06 12.67L33.15 12.67L33.15 12.13L33.15 12.13Q32.31 12.67 31.64 12.67L31.64 12.67L31.64 12.67Q30.28 12.67 29.59 12.09L29.59 12.09L29.59 12.09Q28.91 11.51 28.91 10.49L28.91 10.49L28.91 10.49Q28.91 9.53 29.56 8.78L29.56 8.78L29.56 8.78Q30.20 8.03 31.64 8.03L31.64 8.03L31.64 8.03Q32.31 8.03 33.15 8.44L33.15 8.44L33.15 8.23L33.15 8.23Q33.13 7.48 32.05 7.41L32.05 7.41L32.05 7.41Q30.82 7.41 30.14 7.82L30.14 7.82ZM33.15 10.62L33.15 10.62L33.15 9.85L33.15 9.85Q32.87 9.32 31.85 9.32L31.85 9.32L31.85 9.32Q30.62 9.46 30.55 10.28L30.55 10.28L30.55 10.28Q30.62 11.09 31.85 11.16L31.85 11.16L31.85 11.16Q32.87 11.16 33.15 10.62ZM39.84 12.67L39.84 12.67Q38.47 12.67 37.45 11.82L37.45 11.82L37.45 11.82Q36.42 10.96 36.42 9.60L36.42 9.60L36.42 8.91L36.42 8.91Q36.42 7.55 37.45 6.69L37.45 6.69L37.45 6.69Q38.47 5.84 39.85 5.84L39.85 5.84L39.85 5.84Q41.49 5.84 42.57 7L42.57 7L41.21 8.03L41.21 8.03Q40.59 7.41 39.84 7.41L39.84 7.41L39.84 7.41Q39.16 7.41 38.64 7.96L38.64 7.96L38.64 7.96Q38.13 8.50 38.13 9.26L38.13 9.26L38.13 9.26Q38.13 10.01 38.61 10.55L38.61 10.55L38.61 10.55Q39.09 11.10 39.84 11.10L39.84 11.10L39.84 11.10Q40.59 11.10 41.21 10.49L41.21 10.49L42.57 11.51L42.57 11.51Q41.48 12.67 39.84 12.67L39.84 12.67ZM44.12 12.67L44.12 2.42L46.17 2.42L46.17 8.22L48.13 5.84L50.44 5.84L47.88 8.91L51.12 12.67L48.45 12.67L46.17 9.95L46.17 12.67L44.12 12.67Z"></path></g><defs data-v-423bf9ae=""><linearGradient data-v-423bf9ae="" gradientTransform="rotate(25)" id="b1444c3c-a129-469e-aaf9-5078fd1fc205" x1="0%" y1="0%" x2="100%" y2="0%"><stop data-v-423bf9ae="" offset="0%" style="stop-color: rgb(57, 94, 202); stop-opacity: 1;"></stop><stop data-v-423bf9ae="" offset="100%" style="stop-color: rgb(132, 139, 216); stop-opacity: 1;"></stop></linearGradient></defs><g data-v-423bf9ae="" id="461409a4-c2d2-4297-b26c-210f463ff946" transform="matrix(1.0000110864639282,0,0,1.0000110864639282,-15.407052040100098,-4.001053810119629)" stroke="none" fill="url(#b1444c3c-a129-469e-aaf9-5078fd1fc205)"><path d="M75.566 14.943h-11.17C63.076 9.285 57.127 4.999 50 4.999c-7.125 0-13.076 4.286-14.396 9.944h-11.17c-4.955 0-8.84 5.72-8.84 13.021v54.015c0 7.302 3.885 13.021 8.84 13.021h51.133c4.955 0 8.84-5.72 8.84-13.021V27.965c-.001-7.302-3.886-13.022-8.841-13.022zM50 10.051c4.127 0 7.662 1.975 9.023 4.733H40.977c1.361-2.759 4.896-4.733 9.023-4.733zm-25.566 9.944h51.133c1.25 0 2.959 2.034 3.564 5.389-.881 2.239-1.613 4.476-2.32 6.657-2.332 7.187-4.27 13.099-10.42 14.881v-.213a2.505 2.505 0 0 0-2.506-2.505h-1.258a2.503 2.503 0 0 0-2.504 2.505v.777H42.324v-.777a2.505 2.505 0 0 0-2.506-2.505H38.56a2.503 2.503 0 0 0-2.504 2.505v.717c-8.535-.608-10.68-7.167-13.346-15.385-.609-1.886-1.248-3.812-1.973-5.744.437-3.895 2.333-6.302 3.697-6.302zm51.132 69.954H24.434c-1.549 0-3.789-3.104-3.789-7.97V33.85c2.643 8.097 5.467 15.497 15.412 16.103v.84a2.504 2.504 0 0 0 2.504 2.505h1.258a2.506 2.506 0 0 0 2.506-2.505v-.778h17.799v.778a2.504 2.504 0 0 0 2.504 2.505h1.258a2.506 2.506 0 0 0 2.506-2.505V49.55c7.979-1.85 10.348-9.101 12.82-16.731l.145-.441v49.603c-.002 4.864-2.246 7.968-3.791 7.968z"></path><path d="M69.254 61.32H30.746c-4.18 0-7.58 3.397-7.58 7.576V79.85c0 4.176 3.4 7.574 7.58 7.574h38.508c4.18 0 7.58-3.398 7.58-7.574V68.896c0-4.178-3.4-7.576-7.58-7.576zm5.053 18.531a5.057 5.057 0 0 1-5.053 5.05H30.746a5.057 5.057 0 0 1-5.053-5.05V68.896a5.056 5.056 0 0 1 5.053-5.049h38.508a5.056 5.056 0 0 1 5.053 5.049v10.955z"></path><path d="M68.734 67.027H33.508h-.857c-.471 0-.855.565-.855 1.263 0 .699.385 1.262.855 1.262h36.082c.471 0 .855-.562.855-1.262.002-.697-.383-1.263-.854-1.263z"></path></g><!----></svg>