<svg data-v-fde0c5aa="" xmlns="http://www.w3.org/2000/svg" viewBox="0 0 300 300" class="iconLeft"><!----><defs data-v-fde0c5aa=""><!----></defs><rect data-v-fde0c5aa="" fill="#EAEDF9" x="0" y="0" width="300px" height="300px" class="logo-background-square"></rect><defs data-v-fde0c5aa=""><!----></defs><g data-v-fde0c5aa="" id="c6b6b21a-e45b-48a0-aeae-ada463fb338a" fill="#202A4F" transform="matrix(3.39408278465271,0,0,3.39408278465271,96.98220106063317,118.51988069630742)"><path d="M3.05 12.74L3.05 12.74Q2.39 12.74 1.84 12.50L1.84 12.50L1.84 12.50Q1.28 12.26 0.90 11.85L0.90 11.85L0.90 11.85Q0.51 11.44 0.35 10.94L0.35 10.94L1.43 10.44L1.43 10.44Q1.61 10.97 2.00 11.31L2.00 11.31L2.00 11.31Q2.38 11.65 3.01 11.65L3.01 11.65L3.01 11.65Q3.58 11.65 3.91 11.38L3.91 11.38L3.91 11.38Q4.25 11.10 4.25 10.67L4.25 10.67L4.25 10.67Q4.25 10.36 4.05 10.15L4.05 10.15L4.05 10.15Q3.86 9.95 3.57 9.83L3.57 9.83L3.57 9.83Q3.28 9.71 2.77 9.56L2.77 9.56L2.77 9.56Q2.11 9.37 1.70 9.18L1.70 9.18L1.70 9.18Q1.29 8.99 1.00 8.62L1.00 8.62L1.00 8.62Q0.71 8.24 0.71 7.64L0.71 7.64L0.71 7.64Q0.71 7 1.03 6.55L1.03 6.55L1.03 6.55Q1.35 6.09 1.88 5.86L1.88 5.86L1.88 5.86Q2.41 5.63 3.05 5.63L3.05 5.63L3.05 5.63Q3.86 5.63 4.48 6.01L4.48 6.01L4.48 6.01Q5.10 6.38 5.46 7.05L5.46 7.05L4.45 7.61L4.45 7.61Q3.97 6.69 3.00 6.69L3.00 6.69L3.00 6.69Q2.53 6.69 2.24 6.90L2.24 6.90L2.24 6.90Q1.96 7.12 1.96 7.46L1.96 7.46L1.96 7.46Q1.96 7.72 2.13 7.90L2.13 7.90L2.13 7.90Q2.31 8.08 2.58 8.19L2.58 8.19L2.58 8.19Q2.84 8.29 3.33 8.44L3.33 8.44L3.33 8.44Q4.03 8.65 4.46 8.86L4.46 8.86L4.46 8.86Q4.90 9.06 5.22 9.48L5.22 9.48L5.22 9.48Q5.54 9.89 5.54 10.56L5.54 10.56L5.54 10.56Q5.54 11.27 5.19 11.76L5.19 11.76L5.19 11.76Q4.83 12.26 4.26 12.50L4.26 12.50L4.26 12.50Q3.69 12.74 3.05 12.74L3.05 12.74ZM7.62 15.54L8.83 12.50L6.18 5.78L7.64 5.78L9.51 10.96L11.36 5.78L12.81 5.78L9.04 15.54L7.62 15.54ZM15.97 12.74L15.97 12.74Q15.31 12.74 14.76 12.50L14.76 12.50L14.76 12.50Q14.20 12.26 13.82 11.85L13.82 11.85L13.82 11.85Q13.43 11.44 13.27 10.94L13.27 10.94L14.35 10.44L14.35 10.44Q14.53 10.97 14.92 11.31L14.92 11.31L14.92 11.31Q15.30 11.65 15.93 11.65L15.93 11.65L15.93 11.65Q16.50 11.65 16.83 11.38L16.83 11.38L16.83 11.38Q17.17 11.10 17.17 10.67L17.17 10.67L17.17 10.67Q17.17 10.36 16.97 10.15L16.97 10.15L16.97 10.15Q16.78 9.95 16.49 9.83L16.49 9.83L16.49 9.83Q16.20 9.71 15.69 9.56L15.69 9.56L15.69 9.56Q15.03 9.37 14.62 9.18L14.62 9.18L14.62 9.18Q14.21 8.99 13.92 8.62L13.92 8.62L13.92 8.62Q13.63 8.24 13.63 7.64L13.63 7.64L13.63 7.64Q13.63 7 13.95 6.55L13.95 6.55L13.95 6.55Q14.27 6.09 14.80 5.86L14.80 5.86L14.80 5.86Q15.33 5.63 15.97 5.63L15.97 5.63L15.97 5.63Q16.78 5.63 17.40 6.01L17.40 6.01L17.40 6.01Q18.02 6.38 18.38 7.05L18.38 7.05L17.37 7.61L17.37 7.61Q16.89 6.69 15.92 6.69L15.92 6.69L15.92 6.69Q15.45 6.69 15.16 6.90L15.16 6.90L15.16 6.90Q14.88 7.12 14.88 7.46L14.88 7.46L14.88 7.46Q14.88 7.72 15.05 7.90L15.05 7.90L15.05 7.90Q15.23 8.08 15.50 8.19L15.50 8.19L15.50 8.19Q15.76 8.29 16.25 8.44L16.25 8.44L16.25 8.44Q16.95 8.65 17.38 8.86L17.38 8.86L17.38 8.86Q17.82 9.06 18.14 9.48L18.14 9.48L18.14 9.48Q18.46 9.89 18.46 10.56L18.46 10.56L18.46 10.56Q18.46 11.27 18.10 11.76L18.10 11.76L18.10 11.76Q17.75 12.26 17.18 12.50L17.18 12.50L17.18 12.50Q16.61 12.74 15.97 12.74L15.97 12.74ZM20.08 15.60L20.08 5.78L21.42 5.78L21.42 6.59L21.42 6.59Q21.76 6.13 22.28 5.88L22.28 5.88L22.28 5.88Q22.80 5.63 23.43 5.63L23.43 5.63L23.43 5.63Q24.33 5.63 24.98 6.11L24.98 6.11L24.98 6.11Q25.62 6.58 25.96 7.39L25.96 7.39L25.96 7.39Q26.29 8.20 26.29 9.19L26.29 9.19L26.29 9.19Q26.29 10.17 25.96 10.98L25.96 10.98L25.96 10.98Q25.63 11.79 24.98 12.26L24.98 12.26L24.98 12.26Q24.34 12.74 23.44 12.74L23.44 12.74L23.44 12.74Q22.83 12.74 22.30 12.50L22.30 12.50L22.30 12.50Q21.77 12.26 21.42 11.79L21.42 11.79L21.42 15.60L20.08 15.60ZM23.12 11.56L23.12 11.56Q23.73 11.56 24.14 11.24L24.14 11.24L24.14 11.24Q24.55 10.92 24.75 10.39L24.75 10.39L24.75 10.39Q24.95 9.85 24.95 9.19L24.95 9.19L24.95 9.19Q24.95 8.52 24.75 7.98L24.75 7.98L24.75 7.98Q24.55 7.44 24.14 7.12L24.14 7.12L24.14 7.12Q23.73 6.79 23.12 6.79L23.12 6.79L23.12 6.79Q22.51 6.79 22.10 7.12L22.10 7.12L22.10 7.12Q21.69 7.44 21.49 7.98L21.49 7.98L21.49 7.98Q21.29 8.52 21.29 9.19L21.29 9.19L21.29 9.19Q21.29 9.85 21.49 10.39L21.49 10.39L21.49 10.39Q21.69 10.92 22.10 11.24L22.10 11.24L22.10 11.24Q22.51 11.56 23.12 11.56L23.12 11.56ZM29.64 12.74L29.64 12.74Q28.96 12.74 28.43 12.49L28.43 12.49L28.43 12.49Q27.90 12.24 27.60 11.75L27.60 11.75L27.60 11.75Q27.30 11.27 27.30 10.61L27.30 10.61L27.30 10.61Q27.30 9.58 28.05 9.10L28.05 9.10L28.05 9.10Q28.80 8.62 30.17 8.62L30.17 8.62L31.83 8.62L31.83 8.62Q31.83 7.77 31.46 7.28L31.46 7.28L31.46 7.28Q31.08 6.79 30.31 6.79L30.31 6.79L30.31 6.79Q29.71 6.79 29.27 7.07L29.27 7.07L29.27 7.07Q28.83 7.36 28.55 7.79L28.55 7.79L27.56 7.05L27.56 7.05Q28.05 6.36 28.72 6.00L28.72 6.00L28.72 6.00Q29.39 5.63 30.28 5.63L30.28 5.63L30.28 5.63Q31.16 5.63 31.79 5.98L31.79 5.98L31.79 5.98Q32.42 6.34 32.75 6.97L32.75 6.97L32.75 6.97Q33.08 7.60 33.08 8.44L33.08 8.44L33.08 12.61L31.98 12.61L31.91 11.45L31.91 11.45Q31.53 12.13 30.94 12.43L30.94 12.43L30.94 12.43Q30.36 12.74 29.64 12.74L29.64 12.74ZM29.81 11.62L29.81 11.62Q30.39 11.62 30.84 11.33L30.84 11.33L30.84 11.33Q31.30 11.03 31.56 10.56L31.56 10.56L31.56 10.56Q31.83 10.10 31.83 9.60L31.83 9.60L30.27 9.60L30.27 9.60Q29.47 9.60 29.07 9.86L29.07 9.86L29.07 9.86Q28.66 10.13 28.66 10.65L28.66 10.65L28.66 10.65Q28.66 11.12 28.97 11.37L28.97 11.37L28.97 11.37Q29.29 11.62 29.81 11.62L29.81 11.62ZM37.61 12.74L37.61 12.74Q36.61 12.74 35.90 12.25L35.90 12.25L35.90 12.25Q35.20 11.76 34.84 10.95L34.84 10.95L34.84 10.95Q34.49 10.14 34.49 9.20L34.49 9.20L34.49 9.20Q34.49 8.26 34.84 7.45L34.84 7.45L34.84 7.45Q35.19 6.63 35.90 6.13L35.90 6.13L35.90 6.13Q36.60 5.63 37.60 5.63L37.60 5.63L37.60 5.63Q38.57 5.63 39.29 6.13L39.29 6.13L39.29 6.13Q40.02 6.62 40.39 7.54L40.39 7.54L39.14 8.05L39.14 8.05Q38.99 7.49 38.58 7.14L38.58 7.14L38.58 7.14Q38.17 6.80 37.60 6.80L37.60 6.80L37.60 6.80Q36.99 6.80 36.59 7.15L36.59 7.15L36.59 7.15Q36.20 7.50 36.02 8.04L36.02 8.04L36.02 8.04Q35.83 8.59 35.83 9.20L35.83 9.20L35.83 9.20Q35.83 9.82 36.01 10.36L36.01 10.36L36.01 10.36Q36.19 10.90 36.59 11.24L36.59 11.24L36.59 11.24Q36.98 11.58 37.60 11.58L37.60 11.58L37.60 11.58Q38.16 11.58 38.58 11.25L38.58 11.25L38.58 11.25Q38.99 10.91 39.14 10.36L39.14 10.36L40.32 10.83L40.32 10.83Q40.00 11.73 39.29 12.24L39.29 12.24L39.29 12.24Q38.58 12.74 37.61 12.74L37.61 12.74ZM41.82 12.61L41.82 2.95L43.14 2.95L43.14 9.06L45.96 5.78L47.66 5.78L45.27 8.35L48.03 12.61L46.46 12.61L44.41 9.19L43.14 10.60L43.14 12.61L41.82 12.61Z"></path></g><defs data-v-fde0c5aa=""><linearGradient data-v-fde0c5aa="" gradientTransform="rotate(25)" id="bfd68feb-a243-406f-8f90-4baf5df3734c" x1="0%" y1="0%" x2="100%" y2="0%"><stop data-v-fde0c5aa="" offset="0%" stop-color="#395ECA" stop-opacity="1"></stop><stop data-v-fde0c5aa="" offset="100%" stop-color="#848BD8" stop-opacity="1"></stop></linearGradient></defs><g data-v-fde0c5aa="" id="d4ff8b87-f1a7-41b1-bd22-0849fb61bf44" stroke="none" fill="url(#bfd68feb-a243-406f-8f90-4baf5df3734c)" transform="matrix(0.7057833075523376,0,0,0.7057833075523376,27.295900929630612,114.71083658872797)"><path d="M81.99 36.135c-.1-10.88-9.37-20.1-22.11-23.3-.74-4.78-4.89-8.46-9.88-8.46s-9.14 3.68-9.88 8.46C27.29 16.055 18 25.365 18 36.335v53.29c0 3.31 2.69 6 6 6h52c3.31 0 6-2.69 6-6v-53.29c0-.07 0-.14-.01-.2zM50 8.375c2.47 0 4.59 1.49 5.51 3.63-1.79-.25-3.63-.38-5.51-.38s-3.72.13-5.51.38A5.992 5.992 0 0 1 50 8.375zm28 81.25c0 1.1-.9 2-2 2H24c-1.1 0-2-.9-2-2v-53.29c0-11.42 12.56-20.71 28-20.71s28 9.29 28 20.71v53.29zm-7-35.75H29c-1.1 0-2 .9-2 2v30c0 1.1.9 2 2 2h42c1.1 0 2-.9 2-2v-30c0-1.1-.9-2-2-2zm-2 30H31v-19.25h2.75l.08 2.97c.03 1.09.92 1.95 2 1.95h.06a2 2 0 0 0 1.94-2.06l-.08-2.86H69v19.25zm0-23.25H31v-2.75h38v2.75zM50 43.288a1.99 1.99 0 0 1-1.414-.586l-7-7a2 2 0 0 1 0-2.828l7-7a2 2 0 0 1 2.828 0l7 7a2 2 0 0 1 0 2.828l-7 7a1.992 1.992 0 0 1-1.414.586zm-4.171-9L50 38.459l4.172-4.171L50 30.117l-4.171 4.171z"></path></g><!----></svg>